{
    "asset" : {
        "generator" : "Khronos glTF Blender I/O v0.9.36",
        "version" : "2.0"
    },
    "scene" : 0,
    "scenes" : [
        {
            "name" : "Scene",
            "nodes" : [
                0
            ]
        }
    ],
    "nodes" : [
        {
            "mesh" : 0,
            "name" : "Pipe_CrossSection_Static"
        }
    ],
    "materials" : [
        {
            "doubleSided" : true,
            "name" : "Mat_PipeCrossSection",
            "pbrMetallicRoughness" : {
                "baseColorTexture" : {
                    "index" : 0,
                    "texCoord" : 0
                },
                "metallicFactor" : 0,
                "metallicRoughnessTexture" : {
                    "index" : 1,
                    "texCoord" : 0
                }
            }
        }
    ],
    "meshes" : [
        {
            "name" : "Cylinder.006",
            "primitives" : [
                {
                    "attributes" : {
                        "POSITION" : 0,
                        "NORMAL" : 1,
                        "TEXCOORD_0" : 2
                    },
                    "indices" : 3,
                    "material" : 0
                }
            ]
        }
    ],
    "textures" : [
        {
            "source" : 0
        },
        {
            "source" : 1
        }
    ],
    "images" : [
        {
            "bufferView" : 4,
            "mimeType" : "image/png",
            "name" : "T_Pipe_CrossSection_albedo"
        },
        {
            "bufferView" : 5,
            "mimeType" : "image/png",
            "name" : "T_Pipe_CrossSection_roughness"
        }
    ],
    "accessors" : [
        {
            "bufferView" : 0,
            "componentType" : 5126,
            "count" : 7675,
            "max" : [
                0.5462758541107178,
                1.2463053464889526,
                0.012486654333770275
            ],
            "min" : [
                -0.5738879442214966,
                -2.092123031616211e-05,
                -0.45097261667251587
            ],
            "type" : "VEC3"
        },
        {
            "bufferView" : 1,
            "componentType" : 5126,
            "count" : 7675,
            "type" : "VEC3"
        },
        {
            "bufferView" : 2,
            "componentType" : 5126,
            "count" : 7675,
            "type" : "VEC2"
        },
        {
            "bufferView" : 3,
            "componentType" : 5123,
            "count" : 18456,
            "type" : "SCALAR"
        }
    ],
    "bufferViews" : [
        {
            "buffer" : 0,
            "byteLength" : 92100,
            "byteOffset" : 0
        },
        {
            "buffer" : 0,
            "byteLength" : 92100,
            "byteOffset" : 92100
        },
        {
            "buffer" : 0,
            "byteLength" : 61400,
            "byteOffset" : 184200
        },
        {
            "buffer" : 0,
            "byteLength" : 36912,
            "byteOffset" : 245600
        },
        {
            "buffer" : 0,
            "byteLength" : 97269,
            "byteOffset" : 282512
        },
        {
            "buffer" : 0,
            "byteLength" : 1613980,
            "byteOffset" : 379784
        }
    ],
    "buffers" : [
        {
            "byteLength" : 1993764,
            "uri" : "data:application/octet-stream;base64,"
        }
    ]
}
