{
    "asset" : {
        "generator" : "Khronos glTF Blender I/O v0.9.36",
        "version" : "2.0"
    },
    "scene" : 0,
    "scenes" : [
        {
            "name" : "Scene",
            "nodes" : [
                0
            ]
        }
    ],
    "nodes" : [
        {
            "mesh" : 0,
            "name" : "H_Piece_01",
            "translation" : [
                0,
                0.9855145812034607,
                0
            ]
        }
    ],
    "materials" : [
        {
            "doubleSided" : true,
            "name" : "Mat_PipeCrossSection",
            "pbrMetallicRoughness" : {
                "baseColorTexture" : {
                    "index" : 0,
                    "texCoord" : 0
                },
                "metallicFactor" : 0,
                "metallicRoughnessTexture" : {
                    "index" : 1,
                    "texCoord" : 0
                }
            }
        }
    ],
    "meshes" : [
        {
            "name" : "Cylinder.006",
            "primitives" : [
                {
                    "attributes" : {
                        "POSITION" : 0,
                        "NORMAL" : 1,
                        "TEXCOORD_0" : 2
                    },
                    "indices" : 3,
                    "material" : 0
                }
            ]
        }
    ],
    "textures" : [
        {
            "source" : 0
        },
        {
            "source" : 1
        }
    ],
    "images" : [
        {
            "bufferView" : 4,
            "mimeType" : "image/png",
            "name" : "T_Pipe_Full_albedo"
        },
        {
            "bufferView" : 5,
            "mimeType" : "image/png",
            "name" : "T_Pipe_Full_roughness"
        }
    ],
    "accessors" : [
        {
            "bufferView" : 0,
            "componentType" : 5126,
            "count" : 6906,
            "max" : [
                0.5462758541107178,
                0.4509752094745636,
                0.4502260684967041
            ],
            "min" : [
                -0.5724356770515442,
                -0.985490083694458,
                -0.4502260684967041
            ],
            "type" : "VEC3"
        },
        {
            "bufferView" : 1,
            "componentType" : 5126,
            "count" : 6906,
            "type" : "VEC3"
        },
        {
            "bufferView" : 2,
            "componentType" : 5126,
            "count" : 6906,
            "type" : "VEC2"
        },
        {
            "bufferView" : 3,
            "componentType" : 5123,
            "count" : 24795,
            "type" : "SCALAR"
        }
    ],
    "bufferViews" : [
        {
            "buffer" : 0,
            "byteLength" : 82872,
            "byteOffset" : 0
        },
        {
            "buffer" : 0,
            "byteLength" : 82872,
            "byteOffset" : 82872
        },
        {
            "buffer" : 0,
            "byteLength" : 55248,
            "byteOffset" : 165744
        },
        {
            "buffer" : 0,
            "byteLength" : 49590,
            "byteOffset" : 220992
        },
        {
            "buffer" : 0,
            "byteLength" : 9747,
            "byteOffset" : 270584
        },
        {
            "buffer" : 0,
            "byteLength" : 1547333,
            "byteOffset" : 280332
        }
    ],
    "buffers" : [
        {
            "byteLength" : 1827668,
            "uri" : "data:application/octet-stream;base64,"
        }
    ]
}
