{
    "asset" : {
        "generator" : "Khronos glTF Blender I/O v0.9.36",
        "version" : "2.0"
    },
    "scene" : 0,
    "scenes" : [
        {
            "name" : "Scene",
            "nodes" : [
                0
            ]
        }
    ],
    "nodes" : [
        {
            "mesh" : 0,
            "name" : "M_Piece_03",
            "translation" : [
                -0.3451041281223297,
                0.01968519389629364,
                0
            ]
        }
    ],
    "materials" : [
        {
            "doubleSided" : true,
            "name" : "Mat_Ensamble",
            "pbrMetallicRoughness" : {
                "baseColorTexture" : {
                    "index" : 0,
                    "texCoord" : 0
                },
                "metallicFactor" : 0,
                "metallicRoughnessTexture" : {
                    "index" : 1,
                    "texCoord" : 0
                }
            }
        }
    ],
    "meshes" : [
        {
            "name" : "Cylinder.003",
            "primitives" : [
                {
                    "attributes" : {
                        "POSITION" : 0,
                        "NORMAL" : 1,
                        "TEXCOORD_0" : 2
                    },
                    "indices" : 3,
                    "material" : 0
                }
            ]
        }
    ],
    "textures" : [
        {
            "source" : 0
        },
        {
            "source" : 1
        }
    ],
    "images" : [
        {
            "bufferView" : 4,
            "mimeType" : "image/png",
            "name" : "T_Pipe_Ensamble_albedo"
        },
        {
            "bufferView" : 5,
            "mimeType" : "image/png",
            "name" : "T_Pipe_Ensamble_roughness"
        }
    ],
    "accessors" : [
        {
            "bufferView" : 0,
            "componentType" : 5126,
            "count" : 10249,
            "max" : [
                2.2163665294647217,
                0.4313335418701172,
                0.44869935512542725
            ],
            "min" : [
                -1.8934705257415771,
                -0.4706116318702698,
                -0.45097261667251587
            ],
            "type" : "VEC3"
        },
        {
            "bufferView" : 1,
            "componentType" : 5126,
            "count" : 10249,
            "type" : "VEC3"
        },
        {
            "bufferView" : 2,
            "componentType" : 5126,
            "count" : 10249,
            "type" : "VEC2"
        },
        {
            "bufferView" : 3,
            "componentType" : 5123,
            "count" : 33990,
            "type" : "SCALAR"
        }
    ],
    "bufferViews" : [
        {
            "buffer" : 0,
            "byteLength" : 122988,
            "byteOffset" : 0
        },
        {
            "buffer" : 0,
            "byteLength" : 122988,
            "byteOffset" : 122988
        },
        {
            "buffer" : 0,
            "byteLength" : 81992,
            "byteOffset" : 245976
        },
        {
            "buffer" : 0,
            "byteLength" : 67980,
            "byteOffset" : 327968
        },
        {
            "buffer" : 0,
            "byteLength" : 36904,
            "byteOffset" : 395948
        },
        {
            "buffer" : 0,
            "byteLength" : 1864510,
            "byteOffset" : 432852
        }
    ],
    "buffers" : [
        {
            "byteLength" : 2297364,
            "uri" : "data:application/octet-stream;base64,"
        }
    ]
}
