{
    "asset" : {
        "generator" : "Khronos glTF Blender I/O v0.9.36",
        "version" : "2.0"
    },
    "scene" : 0,
    "scenes" : [
        {
            "name" : "Scene",
            "nodes" : [
                0
            ]
        }
    ],
    "nodes" : [
        {
            "mesh" : 0,
            "name" : "Dress-1_58542"
        }
    ],
    "materials" : [
        {
            "doubleSided" : true,
            "name" : "Mat_Dress1",
            "normalTexture" : {
                "index" : 0,
                "texCoord" : 0
            },
            "pbrMetallicRoughness" : {
                "baseColorTexture" : {
                    "index" : 1,
                    "texCoord" : 0
                },
                "metallicFactor" : 0,
                "roughnessFactor" : 0.800000011920929
            }
        }
    ],
    "meshes" : [
        {
            "name" : "Dress-1_58542",
            "primitives" : [
                {
                    "attributes" : {
                        "POSITION" : 0,
                        "NORMAL" : 1,
                        "TEXCOORD_0" : 2
                    },
                    "indices" : 3,
                    "material" : 0
                }
            ]
        }
    ],
    "textures" : [
        {
            "source" : 0
        },
        {
            "source" : 1
        }
    ],
    "images" : [
        {
            "bufferView" : 4,
            "mimeType" : "image/jpeg",
            "name" : "Dress-1-N"
        },
        {
            "bufferView" : 5,
            "mimeType" : "image/jpeg",
            "name" : "Dress-1-T"
        }
    ],
    "accessors" : [
        {
            "bufferView" : 0,
            "componentType" : 5126,
            "count" : 20926,
            "max" : [
                0.373159259557724,
                1.5099064111709595,
                0.1688137948513031
            ],
            "min" : [
                -0.35136324167251587,
                6.505213034913027e-19,
                -0.20271827280521393
            ],
            "type" : "VEC3"
        },
        {
            "bufferView" : 1,
            "componentType" : 5126,
            "count" : 20926,
            "type" : "VEC3"
        },
        {
            "bufferView" : 2,
            "componentType" : 5126,
            "count" : 20926,
            "type" : "VEC2"
        },
        {
            "bufferView" : 3,
            "componentType" : 5123,
            "count" : 118761,
            "type" : "SCALAR"
        }
    ],
    "bufferViews" : [
        {
            "buffer" : 0,
            "byteLength" : 251112,
            "byteOffset" : 0
        },
        {
            "buffer" : 0,
            "byteLength" : 251112,
            "byteOffset" : 251112
        },
        {
            "buffer" : 0,
            "byteLength" : 167408,
            "byteOffset" : 502224
        },
        {
            "buffer" : 0,
            "byteLength" : 237522,
            "byteOffset" : 669632
        },
        {
            "buffer" : 0,
            "byteLength" : 890060,
            "byteOffset" : 907156
        },
        {
            "buffer" : 0,
            "byteLength" : 1133663,
            "byteOffset" : 1797216
        }
    ],
    "buffers" : [
        {
            "byteLength" : 2930880,
            "uri" : "data:application/octet-stream;base64,"
        }
    ]
}
