{
    "asset" : {
        "generator" : "Khronos glTF Blender I/O v0.9.36",
        "version" : "2.0"
    },
    "scene" : 0,
    "scenes" : [
        {
            "name" : "Scene",
            "nodes" : [
                1
            ]
        }
    ],
    "nodes" : [
        {
            "mesh" : 0,
            "name" : "Dress-20.Shape"
        },
        {
            "children" : [
                0
            ],
            "name" : "Dress-20",
            "rotation" : [
                0.7071068286895752,
                0,
                0,
                0.7071067094802856
            ],
            "scale" : [
                0.009999999776482582,
                0.009999999776482582,
                0.009999999776482582
            ]
        }
    ],
    "materials" : [
        {
            "doubleSided" : true,
            "name" : "Mat_Dress2",
            "normalTexture" : {
                "index" : 0,
                "texCoord" : 0
            },
            "pbrMetallicRoughness" : {
                "baseColorTexture" : {
                    "index" : 1,
                    "texCoord" : 0
                },
                "metallicFactor" : 0,
                "roughnessFactor" : 0.800000011920929
            }
        }
    ],
    "meshes" : [
        {
            "name" : "Dress-20",
            "primitives" : [
                {
                    "attributes" : {
                        "POSITION" : 0,
                        "NORMAL" : 1,
                        "TEXCOORD_0" : 2
                    },
                    "indices" : 3,
                    "material" : 0
                }
            ]
        }
    ],
    "textures" : [
        {
            "source" : 0
        },
        {
            "source" : 1
        }
    ],
    "images" : [
        {
            "bufferView" : 4,
            "mimeType" : "image/jpeg",
            "name" : "Dress-20-N"
        },
        {
            "bufferView" : 5,
            "mimeType" : "image/jpeg",
            "name" : "Dress-20-T"
        }
    ],
    "accessors" : [
        {
            "bufferView" : 0,
            "componentType" : 5126,
            "count" : 16367,
            "max" : [
                22.888145446777344,
                13.988280296325684,
                2.016100619783856e-10
            ],
            "min" : [
                -21.354888916015625,
                -12.977672576904297,
                -152.8885498046875
            ],
            "type" : "VEC3"
        },
        {
            "bufferView" : 1,
            "componentType" : 5126,
            "count" : 16367,
            "type" : "VEC3"
        },
        {
            "bufferView" : 2,
            "componentType" : 5126,
            "count" : 16367,
            "type" : "VEC2"
        },
        {
            "bufferView" : 3,
            "componentType" : 5123,
            "count" : 95037,
            "type" : "SCALAR"
        }
    ],
    "bufferViews" : [
        {
            "buffer" : 0,
            "byteLength" : 196404,
            "byteOffset" : 0
        },
        {
            "buffer" : 0,
            "byteLength" : 196404,
            "byteOffset" : 196404
        },
        {
            "buffer" : 0,
            "byteLength" : 130936,
            "byteOffset" : 392808
        },
        {
            "buffer" : 0,
            "byteLength" : 190074,
            "byteOffset" : 523744
        },
        {
            "buffer" : 0,
            "byteLength" : 728721,
            "byteOffset" : 713820
        },
        {
            "buffer" : 0,
            "byteLength" : 611425,
            "byteOffset" : 1442544
        }
    ],
    "buffers" : [
        {
            "byteLength" : 2053972,
            "uri" : "data:application/octet-stream;base64,"
        }
    ]
}
