{
    "asset" : {
        "generator" : "Khronos glTF Blender I/O v0.9.36",
        "version" : "2.0"
    },
    "scene" : 0,
    "scenes" : [
        {
            "name" : "Scene",
            "nodes" : [
                0
            ]
        }
    ],
    "nodes" : [
        {
            "mesh" : 0,
            "name" : "StrawBerry"
        }
    ],
    "materials" : [
        {
            "doubleSided" : true,
            "name" : "Mat_Jelly_RT",
            "normalTexture" : {
                "index" : 0,
                "texCoord" : 0
            },
            "pbrMetallicRoughness" : {
                "baseColorTexture" : {
                    "index" : 1,
                    "texCoord" : 0
                },
                "metallicFactor" : 0,
                "roughnessFactor" : 0
            }
        },
        {
            "doubleSided" : true,
            "name" : "Mat_Cap_RT",
            "pbrMetallicRoughness" : {
                "baseColorTexture" : {
                    "index" : 2,
                    "texCoord" : 0
                },
                "metallicFactor" : 0,
                "roughnessFactor" : 0.30000001192092896
            }
        },
        {
            "doubleSided" : true,
            "name" : "Mat_Cuchara_RT",
            "pbrMetallicRoughness" : {
                "baseColorTexture" : {
                    "index" : 3,
                    "texCoord" : 0
                },
                "metallicRoughnessTexture" : {
                    "index" : 4,
                    "texCoord" : 0
                },
                "roughnessFactor" : 0.20000000298023224
            }
        }
    ],
    "meshes" : [
        {
            "name" : "Mesh.006",
            "primitives" : [
                {
                    "attributes" : {
                        "POSITION" : 0,
                        "NORMAL" : 1,
                        "TEXCOORD_0" : 2
                    },
                    "indices" : 3,
                    "material" : 0
                },
                {
                    "attributes" : {
                        "POSITION" : 4,
                        "NORMAL" : 5,
                        "TEXCOORD_0" : 6
                    },
                    "indices" : 7,
                    "material" : 1
                },
                {
                    "attributes" : {
                        "POSITION" : 8,
                        "NORMAL" : 9,
                        "TEXCOORD_0" : 10
                    },
                    "indices" : 11,
                    "material" : 2
                }
            ]
        }
    ],
    "textures" : [
        {
            "source" : 0
        },
        {
            "source" : 1
        },
        {
            "source" : 2
        },
        {
            "source" : 3
        },
        {
            "source" : 4
        }
    ],
    "images" : [
        {
            "bufferView" : 4,
            "mimeType" : "image/jpeg",
            "name" : "smuckSB_N_001"
        },
        {
            "bufferView" : 5,
            "mimeType" : "image/png",
            "name" : "Strawberry_Jelly_a"
        },
        {
            "bufferView" : 10,
            "mimeType" : "image/png",
            "name" : "Strawberry_Cap_a"
        },
        {
            "bufferView" : 15,
            "mimeType" : "image/png",
            "name" : "Cuchara_jelly_a"
        },
        {
            "bufferView" : 16,
            "mimeType" : "image/png",
            "name" : "Cuchara_jelly_m"
        }
    ],
    "accessors" : [
        {
            "bufferView" : 0,
            "componentType" : 5126,
            "count" : 1693,
            "max" : [
                0.034807510673999786,
                0.11023668944835663,
                0.03480751812458038
            ],
            "min" : [
                -0.034807514399290085,
                0.00016846040671225637,
                -0.034807510673999786
            ],
            "type" : "VEC3"
        },
        {
            "bufferView" : 1,
            "componentType" : 5126,
            "count" : 1693,
            "type" : "VEC3"
        },
        {
            "bufferView" : 2,
            "componentType" : 5126,
            "count" : 1693,
            "type" : "VEC2"
        },
        {
            "bufferView" : 3,
            "componentType" : 5123,
            "count" : 8775,
            "type" : "SCALAR"
        },
        {
            "bufferView" : 6,
            "componentType" : 5126,
            "count" : 1072,
            "max" : [
                0.031077206134796143,
                0.11192008852958679,
                0.03439373895525932
            ],
            "min" : [
                -0.031077174469828606,
                0.020389847457408905,
                -0.031077222898602486
            ],
            "type" : "VEC3"
        },
        {
            "bufferView" : 7,
            "componentType" : 5126,
            "count" : 1072,
            "type" : "VEC3"
        },
        {
            "bufferView" : 8,
            "componentType" : 5126,
            "count" : 1072,
            "type" : "VEC2"
        },
        {
            "bufferView" : 9,
            "componentType" : 5123,
            "count" : 3810,
            "type" : "SCALAR"
        },
        {
            "bufferView" : 11,
            "componentType" : 5126,
            "count" : 1858,
            "max" : [
                0.008620643988251686,
                0.022216858342289925,
                0.028541071340441704
            ],
            "min" : [
                -0.08575890213251114,
                0.00016380133456550539,
                -0.09986698627471924
            ],
            "type" : "VEC3"
        },
        {
            "bufferView" : 12,
            "componentType" : 5126,
            "count" : 1858,
            "type" : "VEC3"
        },
        {
            "bufferView" : 13,
            "componentType" : 5126,
            "count" : 1858,
            "type" : "VEC2"
        },
        {
            "bufferView" : 14,
            "componentType" : 5123,
            "count" : 9876,
            "type" : "SCALAR"
        }
    ],
    "bufferViews" : [
        {
            "buffer" : 0,
            "byteLength" : 20316,
            "byteOffset" : 0
        },
        {
            "buffer" : 0,
            "byteLength" : 20316,
            "byteOffset" : 20316
        },
        {
            "buffer" : 0,
            "byteLength" : 13544,
            "byteOffset" : 40632
        },
        {
            "buffer" : 0,
            "byteLength" : 17550,
            "byteOffset" : 54176
        },
        {
            "buffer" : 0,
            "byteLength" : 115065,
            "byteOffset" : 71728
        },
        {
            "buffer" : 0,
            "byteLength" : 122850,
            "byteOffset" : 186796
        },
        {
            "buffer" : 0,
            "byteLength" : 12864,
            "byteOffset" : 309648
        },
        {
            "buffer" : 0,
            "byteLength" : 12864,
            "byteOffset" : 322512
        },
        {
            "buffer" : 0,
            "byteLength" : 8576,
            "byteOffset" : 335376
        },
        {
            "buffer" : 0,
            "byteLength" : 7620,
            "byteOffset" : 343952
        },
        {
            "buffer" : 0,
            "byteLength" : 260866,
            "byteOffset" : 351572
        },
        {
            "buffer" : 0,
            "byteLength" : 22296,
            "byteOffset" : 612440
        },
        {
            "buffer" : 0,
            "byteLength" : 22296,
            "byteOffset" : 634736
        },
        {
            "buffer" : 0,
            "byteLength" : 14864,
            "byteOffset" : 657032
        },
        {
            "buffer" : 0,
            "byteLength" : 19752,
            "byteOffset" : 671896
        },
        {
            "buffer" : 0,
            "byteLength" : 66105,
            "byteOffset" : 691648
        },
        {
            "buffer" : 0,
            "byteLength" : 16095,
            "byteOffset" : 757756
        }
    ],
    "buffers" : [
        {
            "byteLength" : 773852,
            "uri" : "data:application/octet-stream;base64,"
        }
    ]
}
