{
    "asset" : {
        "generator" : "Khronos glTF Blender I/O v0.9.36",
        "version" : "2.0"
    },
    "scene" : 0,
    "scenes" : [
        {
            "name" : "Scene",
            "nodes" : [
                0
            ]
        }
    ],
    "nodes" : [
        {
            "mesh" : 0,
            "name" : "MilkBone"
        }
    ],
    "materials" : [
        {
            "doubleSided" : true,
            "name" : "Mat_Milkbone",
            "normalTexture" : {
                "index" : 0,
                "texCoord" : 0
            },
            "pbrMetallicRoughness" : {
                "baseColorTexture" : {
                    "index" : 1,
                    "texCoord" : 0
                },
                "metallicFactor" : 0,
                "metallicRoughnessTexture" : {
                    "index" : 2,
                    "texCoord" : 0
                }
            }
        }
    ],
    "meshes" : [
        {
            "name" : "Mesh.006",
            "primitives" : [
                {
                    "attributes" : {
                        "POSITION" : 0,
                        "NORMAL" : 1,
                        "TEXCOORD_0" : 2
                    },
                    "indices" : 3,
                    "material" : 0
                }
            ]
        }
    ],
    "textures" : [
        {
            "source" : 0
        },
        {
            "source" : 1
        },
        {
            "source" : 2
        }
    ],
    "images" : [
        {
            "bufferView" : 4,
            "mimeType" : "image/png",
            "name" : "Milkbone_n"
        },
        {
            "bufferView" : 5,
            "mimeType" : "image/png",
            "name" : "Milkbone_a"
        },
        {
            "bufferView" : 6,
            "mimeType" : "image/png",
            "name" : "Milkbone_r"
        }
    ],
    "accessors" : [
        {
            "bufferView" : 0,
            "componentType" : 5126,
            "count" : 3947,
            "max" : [
                0.1264077126979828,
                0.19705431163311005,
                0.04487500712275505
            ],
            "min" : [
                -0.08058314025402069,
                0,
                -0.03066953457891941
            ],
            "type" : "VEC3"
        },
        {
            "bufferView" : 1,
            "componentType" : 5126,
            "count" : 3947,
            "type" : "VEC3"
        },
        {
            "bufferView" : 2,
            "componentType" : 5126,
            "count" : 3947,
            "type" : "VEC2"
        },
        {
            "bufferView" : 3,
            "componentType" : 5123,
            "count" : 18966,
            "type" : "SCALAR"
        }
    ],
    "bufferViews" : [
        {
            "buffer" : 0,
            "byteLength" : 47364,
            "byteOffset" : 0
        },
        {
            "buffer" : 0,
            "byteLength" : 47364,
            "byteOffset" : 47364
        },
        {
            "buffer" : 0,
            "byteLength" : 31576,
            "byteOffset" : 94728
        },
        {
            "buffer" : 0,
            "byteLength" : 37932,
            "byteOffset" : 126304
        },
        {
            "buffer" : 0,
            "byteLength" : 652649,
            "byteOffset" : 164236
        },
        {
            "buffer" : 0,
            "byteLength" : 796143,
            "byteOffset" : 816888
        },
        {
            "buffer" : 0,
            "byteLength" : 75297,
            "byteOffset" : 1613032
        }
    ],
    "buffers" : [
        {
            "byteLength" : 1688332,
            "uri" : "data:application/octet-stream;base64,"
        }
    ]
}
