{
    "asset" : {
        "generator" : "Khronos glTF Blender I/O v0.9.36",
        "version" : "2.0"
    },
    "scene" : 0,
    "scenes" : [
        {
            "name" : "Scene",
            "nodes" : [
                0
            ]
        }
    ],
    "nodes" : [
        {
            "mesh" : 0,
            "name" : "Uncrustables"
        }
    ],
    "materials" : [
        {
            "doubleSided" : true,
            "name" : "Mat_Uncrust",
            "pbrMetallicRoughness" : {
                "baseColorTexture" : {
                    "index" : 0,
                    "texCoord" : 0
                },
                "metallicFactor" : 0,
                "roughnessFactor" : 0.4000000059604645
            }
        },
        {
            "doubleSided" : true,
            "name" : "Mat_UncrustFood",
            "pbrMetallicRoughness" : {
                "baseColorTexture" : {
                    "index" : 1,
                    "texCoord" : 0
                },
                "metallicFactor" : 0,
                "roughnessFactor" : 1
            }
        }
    ],
    "meshes" : [
        {
            "name" : "Mesh.004",
            "primitives" : [
                {
                    "attributes" : {
                        "POSITION" : 0,
                        "NORMAL" : 1,
                        "TEXCOORD_0" : 2
                    },
                    "indices" : 3,
                    "material" : 0
                },
                {
                    "attributes" : {
                        "POSITION" : 4,
                        "NORMAL" : 5,
                        "TEXCOORD_0" : 6
                    },
                    "indices" : 7,
                    "material" : 1
                }
            ]
        }
    ],
    "textures" : [
        {
            "source" : 0
        },
        {
            "source" : 1
        }
    ],
    "images" : [
        {
            "bufferView" : 4,
            "mimeType" : "image/png",
            "name" : "smuckLabelunc_D_002"
        },
        {
            "bufferView" : 9,
            "mimeType" : "image/png",
            "name" : "uncrustables_bre_D_001"
        }
    ],
    "accessors" : [
        {
            "bufferView" : 0,
            "componentType" : 5126,
            "count" : 578,
            "max" : [
                0.11262789368629456,
                0.14672648906707764,
                0.041293665766716
            ],
            "min" : [
                -0.09860062599182129,
                -0.0014213994145393372,
                -0.01060009840875864
            ],
            "type" : "VEC3"
        },
        {
            "bufferView" : 1,
            "componentType" : 5126,
            "count" : 578,
            "type" : "VEC3"
        },
        {
            "bufferView" : 2,
            "componentType" : 5126,
            "count" : 578,
            "type" : "VEC2"
        },
        {
            "bufferView" : 3,
            "componentType" : 5123,
            "count" : 2484,
            "type" : "SCALAR"
        },
        {
            "bufferView" : 5,
            "componentType" : 5126,
            "count" : 22410,
            "max" : [
                -0.04981148988008499,
                0.04560242220759392,
                0.17089278995990753
            ],
            "min" : [
                -0.24362675845623016,
                -0.002431824803352356,
                -0.031463153660297394
            ],
            "type" : "VEC3"
        },
        {
            "bufferView" : 6,
            "componentType" : 5126,
            "count" : 22410,
            "type" : "VEC3"
        },
        {
            "bufferView" : 7,
            "componentType" : 5126,
            "count" : 22410,
            "type" : "VEC2"
        },
        {
            "bufferView" : 8,
            "componentType" : 5123,
            "count" : 75264,
            "type" : "SCALAR"
        }
    ],
    "bufferViews" : [
        {
            "buffer" : 0,
            "byteLength" : 6936,
            "byteOffset" : 0
        },
        {
            "buffer" : 0,
            "byteLength" : 6936,
            "byteOffset" : 6936
        },
        {
            "buffer" : 0,
            "byteLength" : 4624,
            "byteOffset" : 13872
        },
        {
            "buffer" : 0,
            "byteLength" : 4968,
            "byteOffset" : 18496
        },
        {
            "buffer" : 0,
            "byteLength" : 1158075,
            "byteOffset" : 23464
        },
        {
            "buffer" : 0,
            "byteLength" : 268920,
            "byteOffset" : 1181540
        },
        {
            "buffer" : 0,
            "byteLength" : 268920,
            "byteOffset" : 1450460
        },
        {
            "buffer" : 0,
            "byteLength" : 179280,
            "byteOffset" : 1719380
        },
        {
            "buffer" : 0,
            "byteLength" : 150528,
            "byteOffset" : 1898660
        },
        {
            "buffer" : 0,
            "byteLength" : 847378,
            "byteOffset" : 2049188
        }
    ],
    "buffers" : [
        {
            "byteLength" : 2896568,
            "uri" : "data:application/octet-stream;base64,"
        }
    ]
}
