{
    "asset" : {
        "generator" : "Khronos glTF Blender I/O v0.9.36",
        "version" : "2.0"
    },
    "scene" : 0,
    "scenes" : [
        {
            "name" : "Scene",
            "nodes" : [
                0,
                1
            ]
        }
    ],
    "nodes" : [
        {
            "mesh" : 0,
            "name" : "AvatarMujer_quads",
            "rotation" : [
                0.7071068286895752,
                0,
                0,
                0.7071067094802856
            ]
        },
        {
            "mesh" : 1,
            "name" : "Swimsuit_C_01_Main",
            "rotation" : [
                0.7071068286895752,
                0,
                0,
                0.7071067094802856
            ],
            "scale" : [
                0.009978136979043484,
                0.009978136979043484,
                0.009978136979043484
            ]
        }
    ],
    "materials" : [
        {
            "doubleSided" : true,
            "name" : "Default OBJ",
            "pbrMetallicRoughness" : {
                "baseColorFactor" : [
                    0.800000011920929,
                    0.800000011920929,
                    0.800000011920929,
                    1
                ],
                "metallicFactor" : 0,
                "roughnessFactor" : 0.5
            }
        },
        {
            "doubleSided" : true,
            "name" : "Mat_Swimsuit_C",
            "pbrMetallicRoughness" : {
                "baseColorTexture" : {
                    "index" : 0,
                    "texCoord" : 0
                },
                "metallicFactor" : 0,
                "roughnessFactor" : 0.5
            }
        },
        {
            "doubleSided" : true,
            "name" : "Mat_Ring",
            "pbrMetallicRoughness" : {
                "baseColorFactor" : [
                    1,
                    1,
                    1,
                    1
                ],
                "metallicFactor" : 0,
                "roughnessFactor" : 0
            }
        }
    ],
    "meshes" : [
        {
            "name" : "AvatarMujer",
            "primitives" : [
                {
                    "attributes" : {
                        "POSITION" : 0,
                        "NORMAL" : 1,
                        "TEXCOORD_0" : 2
                    },
                    "indices" : 3,
                    "material" : 0
                }
            ]
        },
        {
            "name" : "Swimsuit_C_01_Main",
            "primitives" : [
                {
                    "attributes" : {
                        "POSITION" : 4,
                        "NORMAL" : 5,
                        "TEXCOORD_0" : 6
                    },
                    "indices" : 7,
                    "material" : 1
                },
                {
                    "attributes" : {
                        "POSITION" : 8,
                        "NORMAL" : 9,
                        "TEXCOORD_0" : 10
                    },
                    "indices" : 11,
                    "material" : 2
                }
            ]
        }
    ],
    "textures" : [
        {
            "source" : 0
        }
    ],
    "images" : [
        {
            "bufferView" : 8,
            "mimeType" : "image/png",
            "name" : "Polka_Swimsuit_C_01"
        }
    ],
    "accessors" : [
        {
            "bufferView" : 0,
            "componentType" : 5126,
            "count" : 2884,
            "max" : [
                0.25986799597740173,
                0.11858700215816498,
                3.694811817611665e-12
            ],
            "min" : [
                -0.26112499833106995,
                -0.13233600556850433,
                -1.5307999849319458
            ],
            "type" : "VEC3"
        },
        {
            "bufferView" : 1,
            "componentType" : 5126,
            "count" : 2884,
            "type" : "VEC3"
        },
        {
            "bufferView" : 2,
            "componentType" : 5126,
            "count" : 2884,
            "type" : "VEC2"
        },
        {
            "bufferView" : 3,
            "componentType" : 5123,
            "count" : 13806,
            "type" : "SCALAR"
        },
        {
            "bufferView" : 4,
            "componentType" : 5126,
            "count" : 20172,
            "max" : [
                17.660778045654297,
                12.65987777709961,
                -79.2850341796875
            ],
            "min" : [
                -17.671064376831055,
                -13.392704010009766,
                -149.17630004882812
            ],
            "type" : "VEC3"
        },
        {
            "bufferView" : 5,
            "componentType" : 5126,
            "count" : 20172,
            "type" : "VEC3"
        },
        {
            "bufferView" : 6,
            "componentType" : 5126,
            "count" : 20172,
            "type" : "VEC2"
        },
        {
            "bufferView" : 7,
            "componentType" : 5123,
            "count" : 65541,
            "type" : "SCALAR"
        },
        {
            "bufferView" : 9,
            "componentType" : 5126,
            "count" : 729,
            "max" : [
                2.4633963108062744,
                11.416614532470703,
                -107.7626953125
            ],
            "min" : [
                -2.0205130577087402,
                -12.30764389038086,
                -129.10052490234375
            ],
            "type" : "VEC3"
        },
        {
            "bufferView" : 10,
            "componentType" : 5126,
            "count" : 729,
            "type" : "VEC3"
        },
        {
            "bufferView" : 11,
            "componentType" : 5126,
            "count" : 729,
            "type" : "VEC2"
        },
        {
            "bufferView" : 12,
            "componentType" : 5123,
            "count" : 4326,
            "type" : "SCALAR"
        }
    ],
    "bufferViews" : [
        {
            "buffer" : 0,
            "byteLength" : 34608,
            "byteOffset" : 0
        },
        {
            "buffer" : 0,
            "byteLength" : 34608,
            "byteOffset" : 34608
        },
        {
            "buffer" : 0,
            "byteLength" : 23072,
            "byteOffset" : 69216
        },
        {
            "buffer" : 0,
            "byteLength" : 27612,
            "byteOffset" : 92288
        },
        {
            "buffer" : 0,
            "byteLength" : 242064,
            "byteOffset" : 119900
        },
        {
            "buffer" : 0,
            "byteLength" : 242064,
            "byteOffset" : 361964
        },
        {
            "buffer" : 0,
            "byteLength" : 161376,
            "byteOffset" : 604028
        },
        {
            "buffer" : 0,
            "byteLength" : 131082,
            "byteOffset" : 765404
        },
        {
            "buffer" : 0,
            "byteLength" : 23579,
            "byteOffset" : 896488
        },
        {
            "buffer" : 0,
            "byteLength" : 8748,
            "byteOffset" : 920068
        },
        {
            "buffer" : 0,
            "byteLength" : 8748,
            "byteOffset" : 928816
        },
        {
            "buffer" : 0,
            "byteLength" : 5832,
            "byteOffset" : 937564
        },
        {
            "buffer" : 0,
            "byteLength" : 8652,
            "byteOffset" : 943396
        }
    ],
    "buffers" : [
        {
            "byteLength" : 952048,
            "uri" : "data:application/octet-stream;base64,"
        }
    ]
}
