{
    "asset" : {
        "generator" : "Khronos glTF Blender I/O v0.9.36",
        "version" : "2.0"
    },
    "scene" : 0,
    "scenes" : [
        {
            "name" : "Scene",
            "nodes" : [
                0,
                1
            ]
        }
    ],
    "nodes" : [
        {
            "mesh" : 0,
            "name" : "AvatarMujer_quads",
            "rotation" : [
                0.7071068286895752,
                0,
                0,
                0.7071067094802856
            ]
        },
        {
            "mesh" : 1,
            "name" : "Swimsuit_E_01_Lowpoly.001"
        }
    ],
    "materials" : [
        {
            "doubleSided" : true,
            "name" : "Default OBJ",
            "pbrMetallicRoughness" : {
                "baseColorFactor" : [
                    0.800000011920929,
                    0.800000011920929,
                    0.800000011920929,
                    1
                ],
                "metallicFactor" : 0,
                "roughnessFactor" : 0.5
            }
        },
        {
            "doubleSided" : true,
            "name" : "Mat_Swimsuit_E",
            "pbrMetallicRoughness" : {
                "baseColorTexture" : {
                    "index" : 0,
                    "texCoord" : 0
                },
                "metallicFactor" : 0,
                "roughnessFactor" : 0.5
            }
        }
    ],
    "meshes" : [
        {
            "name" : "AvatarMujer",
            "primitives" : [
                {
                    "attributes" : {
                        "POSITION" : 0,
                        "NORMAL" : 1,
                        "TEXCOORD_0" : 2
                    },
                    "indices" : 3,
                    "material" : 0
                }
            ]
        },
        {
            "name" : "Swimsuit_E_01_Lowpoly.001",
            "primitives" : [
                {
                    "attributes" : {
                        "POSITION" : 4,
                        "NORMAL" : 5,
                        "TEXCOORD_0" : 6
                    },
                    "indices" : 7,
                    "material" : 1
                }
            ]
        }
    ],
    "textures" : [
        {
            "source" : 0
        }
    ],
    "images" : [
        {
            "bufferView" : 8,
            "mimeType" : "image/jpeg",
            "name" : "LinePattern_Swimsuit_E"
        }
    ],
    "accessors" : [
        {
            "bufferView" : 0,
            "componentType" : 5126,
            "count" : 2884,
            "max" : [
                0.25986799597740173,
                0.11858700215816498,
                3.694811817611665e-12
            ],
            "min" : [
                -0.26112499833106995,
                -0.13233600556850433,
                -1.5307999849319458
            ],
            "type" : "VEC3"
        },
        {
            "bufferView" : 1,
            "componentType" : 5126,
            "count" : 2884,
            "type" : "VEC3"
        },
        {
            "bufferView" : 2,
            "componentType" : 5126,
            "count" : 2884,
            "type" : "VEC2"
        },
        {
            "bufferView" : 3,
            "componentType" : 5123,
            "count" : 13806,
            "type" : "SCALAR"
        },
        {
            "bufferView" : 4,
            "componentType" : 5126,
            "count" : 10712,
            "max" : [
                0.16906413435935974,
                1.481143593788147,
                0.12292157858610153
            ],
            "min" : [
                -0.17140980064868927,
                0.7956879138946533,
                -0.13022902607917786
            ],
            "type" : "VEC3"
        },
        {
            "bufferView" : 5,
            "componentType" : 5126,
            "count" : 10712,
            "type" : "VEC3"
        },
        {
            "bufferView" : 6,
            "componentType" : 5126,
            "count" : 10712,
            "type" : "VEC2"
        },
        {
            "bufferView" : 7,
            "componentType" : 5123,
            "count" : 59169,
            "type" : "SCALAR"
        }
    ],
    "bufferViews" : [
        {
            "buffer" : 0,
            "byteLength" : 34608,
            "byteOffset" : 0
        },
        {
            "buffer" : 0,
            "byteLength" : 34608,
            "byteOffset" : 34608
        },
        {
            "buffer" : 0,
            "byteLength" : 23072,
            "byteOffset" : 69216
        },
        {
            "buffer" : 0,
            "byteLength" : 27612,
            "byteOffset" : 92288
        },
        {
            "buffer" : 0,
            "byteLength" : 128544,
            "byteOffset" : 119900
        },
        {
            "buffer" : 0,
            "byteLength" : 128544,
            "byteOffset" : 248444
        },
        {
            "buffer" : 0,
            "byteLength" : 85696,
            "byteOffset" : 376988
        },
        {
            "buffer" : 0,
            "byteLength" : 118338,
            "byteOffset" : 462684
        },
        {
            "buffer" : 0,
            "byteLength" : 15617,
            "byteOffset" : 581024
        }
    ],
    "buffers" : [
        {
            "byteLength" : 596644,
            "uri" : "data:application/octet-stream;base64,"
        }
    ]
}
