{
    "asset" : {
        "generator" : "Khronos glTF Blender I/O v0.9.36",
        "version" : "2.0"
    },
    "scene" : 0,
    "scenes" : [
        {
            "name" : "Scene",
            "nodes" : [
                0,
                1
            ]
        }
    ],
    "nodes" : [
        {
            "mesh" : 0,
            "name" : "AvatarMujer_quads",
            "rotation" : [
                0.7071068286895752,
                0,
                0,
                0.7071067094802856
            ]
        },
        {
            "mesh" : 1,
            "name" : "Swimsuit_D_01_Main"
        }
    ],
    "materials" : [
        {
            "doubleSided" : true,
            "name" : "Default OBJ",
            "pbrMetallicRoughness" : {
                "baseColorFactor" : [
                    0.800000011920929,
                    0.800000011920929,
                    0.800000011920929,
                    1
                ],
                "metallicFactor" : 0,
                "roughnessFactor" : 0.5
            }
        },
        {
            "doubleSided" : true,
            "name" : "Mat_Swimsuit_D",
            "pbrMetallicRoughness" : {
                "baseColorTexture" : {
                    "index" : 0,
                    "texCoord" : 0
                },
                "metallicFactor" : 0,
                "roughnessFactor" : 0.5
            }
        }
    ],
    "meshes" : [
        {
            "name" : "AvatarMujer",
            "primitives" : [
                {
                    "attributes" : {
                        "POSITION" : 0,
                        "NORMAL" : 1,
                        "TEXCOORD_0" : 2
                    },
                    "indices" : 3,
                    "material" : 0
                }
            ]
        },
        {
            "name" : "Swimsuit_D_01_Main",
            "primitives" : [
                {
                    "attributes" : {
                        "POSITION" : 4,
                        "NORMAL" : 5,
                        "TEXCOORD_0" : 6
                    },
                    "indices" : 7,
                    "material" : 1
                }
            ]
        }
    ],
    "textures" : [
        {
            "source" : 0
        }
    ],
    "images" : [
        {
            "bufferView" : 8,
            "mimeType" : "image/jpeg",
            "name" : "Polka_Swimsuit_D_01"
        }
    ],
    "accessors" : [
        {
            "bufferView" : 0,
            "componentType" : 5126,
            "count" : 2884,
            "max" : [
                0.25986799597740173,
                0.11858700215816498,
                3.694811817611665e-12
            ],
            "min" : [
                -0.26112499833106995,
                -0.13233600556850433,
                -1.5307999849319458
            ],
            "type" : "VEC3"
        },
        {
            "bufferView" : 1,
            "componentType" : 5126,
            "count" : 2884,
            "type" : "VEC3"
        },
        {
            "bufferView" : 2,
            "componentType" : 5126,
            "count" : 2884,
            "type" : "VEC2"
        },
        {
            "bufferView" : 3,
            "componentType" : 5123,
            "count" : 13806,
            "type" : "SCALAR"
        },
        {
            "bufferView" : 4,
            "componentType" : 5126,
            "count" : 16814,
            "max" : [
                0.1780983805656433,
                1.4806710481643677,
                0.1347091645002365
            ],
            "min" : [
                -0.18127059936523438,
                0.7914949655532837,
                -0.1312025785446167
            ],
            "type" : "VEC3"
        },
        {
            "bufferView" : 5,
            "componentType" : 5126,
            "count" : 16814,
            "type" : "VEC3"
        },
        {
            "bufferView" : 6,
            "componentType" : 5126,
            "count" : 16814,
            "type" : "VEC2"
        },
        {
            "bufferView" : 7,
            "componentType" : 5123,
            "count" : 73542,
            "type" : "SCALAR"
        }
    ],
    "bufferViews" : [
        {
            "buffer" : 0,
            "byteLength" : 34608,
            "byteOffset" : 0
        },
        {
            "buffer" : 0,
            "byteLength" : 34608,
            "byteOffset" : 34608
        },
        {
            "buffer" : 0,
            "byteLength" : 23072,
            "byteOffset" : 69216
        },
        {
            "buffer" : 0,
            "byteLength" : 27612,
            "byteOffset" : 92288
        },
        {
            "buffer" : 0,
            "byteLength" : 201768,
            "byteOffset" : 119900
        },
        {
            "buffer" : 0,
            "byteLength" : 201768,
            "byteOffset" : 321668
        },
        {
            "buffer" : 0,
            "byteLength" : 134512,
            "byteOffset" : 523436
        },
        {
            "buffer" : 0,
            "byteLength" : 147084,
            "byteOffset" : 657948
        },
        {
            "buffer" : 0,
            "byteLength" : 24198,
            "byteOffset" : 805032
        }
    ],
    "buffers" : [
        {
            "byteLength" : 829232,
            "uri" : "data:application/octet-stream;base64,"
        }
    ]
}
