{
    "asset" : {
        "generator" : "Khronos glTF Blender I/O v0.9.36",
        "version" : "2.0"
    },
    "scene" : 0,
    "scenes" : [
        {
            "name" : "Scene",
            "nodes" : [
                0,
                1
            ]
        }
    ],
    "nodes" : [
        {
            "mesh" : 0,
            "name" : "Swimsuit_A_01_Main",
            "rotation" : [
                0.7071068286895752,
                0,
                0,
                0.7071067094802856
            ],
            "scale" : [
                0.009970616549253464,
                0.009970616549253464,
                0.009970616549253464
            ]
        },
        {
            "mesh" : 1,
            "name" : "AvatarMujer_quads",
            "rotation" : [
                0.7071068286895752,
                0,
                0,
                0.7071067094802856
            ]
        }
    ],
    "materials" : [
        {
            "doubleSided" : true,
            "name" : "defaultMat",
            "pbrMetallicRoughness" : {
                "baseColorTexture" : {
                    "index" : 0,
                    "texCoord" : 0
                },
                "metallicFactor" : 0,
                "roughnessFactor" : 0.5
            }
        },
        {
            "doubleSided" : true,
            "name" : "Default OBJ",
            "pbrMetallicRoughness" : {
                "baseColorFactor" : [
                    0.800000011920929,
                    0.800000011920929,
                    0.800000011920929,
                    1
                ],
                "metallicFactor" : 0,
                "roughnessFactor" : 0.5
            }
        }
    ],
    "meshes" : [
        {
            "name" : "Swimsuit_A_01_Main",
            "primitives" : [
                {
                    "attributes" : {
                        "POSITION" : 0,
                        "NORMAL" : 1,
                        "TEXCOORD_0" : 2
                    },
                    "indices" : 3,
                    "material" : 0
                }
            ]
        },
        {
            "name" : "AvatarMujer",
            "primitives" : [
                {
                    "attributes" : {
                        "POSITION" : 4,
                        "NORMAL" : 5,
                        "TEXCOORD_0" : 6
                    },
                    "indices" : 7,
                    "material" : 1
                }
            ]
        }
    ],
    "textures" : [
        {
            "source" : 0
        }
    ],
    "images" : [
        {
            "bufferView" : 4,
            "mimeType" : "image/png",
            "name" : "Polka_Swimsuit_A_01"
        }
    ],
    "accessors" : [
        {
            "bufferView" : 0,
            "componentType" : 5126,
            "count" : 40716,
            "max" : [
                16.928260803222656,
                12.957606315612793,
                -79.61018371582031
            ],
            "min" : [
                -16.749103546142578,
                -13.279553413391113,
                -153.35723876953125
            ],
            "type" : "VEC3"
        },
        {
            "bufferView" : 1,
            "componentType" : 5126,
            "count" : 40716,
            "type" : "VEC3"
        },
        {
            "bufferView" : 2,
            "componentType" : 5126,
            "count" : 40716,
            "type" : "VEC2"
        },
        {
            "bufferView" : 3,
            "componentType" : 5123,
            "count" : 132078,
            "type" : "SCALAR"
        },
        {
            "bufferView" : 5,
            "componentType" : 5126,
            "count" : 2884,
            "max" : [
                0.25986799597740173,
                0.11858700215816498,
                3.694811817611665e-12
            ],
            "min" : [
                -0.26112499833106995,
                -0.13233600556850433,
                -1.5307999849319458
            ],
            "type" : "VEC3"
        },
        {
            "bufferView" : 6,
            "componentType" : 5126,
            "count" : 2884,
            "type" : "VEC3"
        },
        {
            "bufferView" : 7,
            "componentType" : 5126,
            "count" : 2884,
            "type" : "VEC2"
        },
        {
            "bufferView" : 8,
            "componentType" : 5123,
            "count" : 13806,
            "type" : "SCALAR"
        }
    ],
    "bufferViews" : [
        {
            "buffer" : 0,
            "byteLength" : 488592,
            "byteOffset" : 0
        },
        {
            "buffer" : 0,
            "byteLength" : 488592,
            "byteOffset" : 488592
        },
        {
            "buffer" : 0,
            "byteLength" : 325728,
            "byteOffset" : 977184
        },
        {
            "buffer" : 0,
            "byteLength" : 264156,
            "byteOffset" : 1302912
        },
        {
            "buffer" : 0,
            "byteLength" : 46347,
            "byteOffset" : 1567068
        },
        {
            "buffer" : 0,
            "byteLength" : 34608,
            "byteOffset" : 1613416
        },
        {
            "buffer" : 0,
            "byteLength" : 34608,
            "byteOffset" : 1648024
        },
        {
            "buffer" : 0,
            "byteLength" : 23072,
            "byteOffset" : 1682632
        },
        {
            "buffer" : 0,
            "byteLength" : 27612,
            "byteOffset" : 1705704
        }
    ],
    "buffers" : [
        {
            "byteLength" : 1733316,
            "uri" : "data:application/octet-stream;base64,"
        }
    ]
}
